<svg width="138" height="105" viewBox="0 0 138 105" fill="none" xmlns="http://www.w3.org/2000/svg">
<path d="M137.503 0H82.503V55H137.503V0Z" fill="#FFCC48"/>
<path d="M131.703 46.136C132.563 45.572 133.253 44.7854 133.702 43.8601C134.15 42.9347 134.339 41.9051 134.249 40.8809C134.159 39.8566 133.792 38.876 133.189 38.0433C132.586 37.2106 131.768 36.557 130.823 36.152L97.459 21.864C88.0702 17.9166 77.976 15.922 67.7914 16.0016C57.6068 16.0812 47.545 18.2334 38.219 22.327L4.05201 37.319C3.33368 37.6342 2.71631 38.1416 2.26783 38.7852C1.81936 39.4288 1.55721 40.1837 1.51027 40.9668C1.46332 41.7498 1.63335 42.5306 2.00172 43.2232C2.37009 43.9158 2.9225 44.4932 3.59803 44.892L15.366 51.838C21.2983 55.3408 28.065 57.1801 34.9542 57.1625C41.8435 57.1449 48.6007 55.271 54.515 51.738V51.738C59.7461 48.6128 65.7156 46.9384 71.809 46.8873C77.9023 46.8361 83.8992 48.4101 89.182 51.447L89.725 51.759C95.0799 54.8372 101.183 56.3708 107.357 56.1897C113.531 56.0086 119.534 54.1198 124.699 50.733L131.703 46.136Z" stroke="black" stroke-width="3" stroke-miterlimit="10" stroke-linecap="round"/>
<path d="M106.172 102.612V56.199" stroke="black" stroke-width="3" stroke-miterlimit="10" stroke-linecap="round"/>
<path d="M131.334 86.634V46.726" stroke="black" stroke-width="3" stroke-miterlimit="10" stroke-linecap="round"/>
<path d="M31.72 57.055V102.274" stroke="black" stroke-width="3" stroke-miterlimit="10" stroke-linecap="round"/>
<path d="M4.39398 46.418V86.295" stroke="black" stroke-width="3" stroke-miterlimit="10" stroke-linecap="round"/>
<path d="M74.5269 75.0627H74.5261H74.5252H45.515H44.015V73.5627V71.9513C44.0192 68.1073 45.5179 64.4948 48.235 61.7778C50.9522 59.0609 54.5645 57.5623 58.4066 57.558C61.449 57.5543 64.3095 56.3674 66.4609 54.2161C68.6122 52.0648 69.799 49.2046 69.8023 46.1623V36.4944C69.8057 33.5107 70.9688 30.7073 73.077 28.5989C75.1852 26.4905 77.9885 25.3275 80.9702 25.324H84.1956H85.6956V26.824V63.8923C85.6923 66.8761 84.5292 69.6795 82.4208 71.7879C80.3124 73.8963 77.509 75.0593 74.5269 75.0627Z" fill="black"/>
<path d="M74.5252 73.5627C79.864 73.5566 84.1896 69.2311 84.1956 63.8924V26.824H80.9719C75.634 26.8302 71.3085 31.1557 71.3023 36.4944V46.1639C71.2945 53.2816 65.5261 59.0493 58.4083 59.058C51.2914 59.0659 45.5228 64.8336 45.515 71.9513V73.5627H74.5252ZM74.5286 76.5627H42.515V71.9513C42.5173 69.805 42.9394 67.7247 43.7697 65.7649C44.571 63.8733 45.7165 62.175 47.1745 60.7171C48.6324 59.2593 50.3307 58.1138 52.2222 57.3126C54.1819 56.4825 56.2621 56.0604 58.405 56.058C61.0472 56.0548 63.5317 55.024 65.4002 53.1555C67.2687 51.287 68.2994 48.8029 68.3023 46.1606V36.4944C68.3062 33.1089 69.6253 29.9295 72.0163 27.5383C74.4074 25.147 77.5867 23.8279 80.9684 23.824H87.1956V63.8924C87.1918 67.2778 85.8727 70.4573 83.4815 72.8486C81.0903 75.2398 77.9107 76.5588 74.5286 76.5627Z" fill="black"/>
<path d="M80.2795 75.427C78.8925 75.999 77.4172 76.3227 75.9179 76.3832L83.033 100.571H84.1954L80.2795 75.427ZM82.6575 71.2014L87.6988 103.571H80.7884L71.9547 73.5407L75.7969 73.3856C76.9471 73.3392 78.0705 73.0929 79.1358 72.6536L82.6575 71.2014Z" fill="black"/>
<path d="M54.0632 76.3564C53.2778 76.3564 52.5123 76.3833 50.9919 76.3833L47.076 100.572H48.2392L55.3533 76.3833C54.8536 76.3631 54.456 76.3564 54.0632 76.3564ZM54.0632 73.3564C54.5366 73.3564 54.9717 73.3654 55.4743 73.3857L59.3163 73.5409L50.4839 103.572H43.5512L48.4385 73.3833H50.9919C51.8548 73.3833 52.457 73.3746 52.9882 73.3669C53.3771 73.3613 53.7131 73.3564 54.0632 73.3564Z" fill="black"/>
<path d="M56.2301 80.86L77.8631 89.349" stroke="black" stroke-width="3" stroke-miterlimit="10" stroke-linecap="round"/>
<path d="M75.1451 80.86L53.5941 89.161" stroke="black" stroke-width="3" stroke-miterlimit="10" stroke-linecap="round"/>
</svg>
