<svg width="19" height="19" viewBox="0 0 19 19" fill="none" xmlns="http://www.w3.org/2000/svg">
<path d="M5.47607 1.617H13.4261C14.4803 1.617 15.4914 2.03579 16.2368 2.78125C16.9823 3.52671 17.4011 4.53776 17.4011 5.592V13.542C17.4011 14.5962 16.9823 15.6073 16.2368 16.3528C15.4914 17.0982 14.4803 17.517 13.4261 17.517H5.47607C4.42183 17.517 3.41078 17.0982 2.66532 16.3528C1.91986 15.6073 1.50107 14.5962 1.50107 13.542V5.592C1.50107 4.53776 1.91986 3.52671 2.66532 2.78125C3.41078 2.03579 4.42183 1.617 5.47607 1.617V1.617Z" stroke="white" stroke-width="2" stroke-linecap="round" stroke-linejoin="round"/>
<path d="M12.6321 9.067C12.7302 9.72864 12.6172 10.4044 12.3092 10.9981C12.0011 11.5918 11.5137 12.0733 10.9162 12.374C10.3188 12.6748 9.64171 12.7795 8.98132 12.6732C8.32093 12.5669 7.71086 12.2552 7.23789 11.7822C6.76492 11.3092 6.45313 10.6991 6.34687 10.0388C6.24062 9.37837 6.3453 8.70129 6.64603 8.10383C6.94677 7.50637 7.42824 7.01895 8.02197 6.7109C8.61569 6.40285 9.29143 6.28986 9.95308 6.388C10.6279 6.4881 11.2527 6.80258 11.7351 7.28499C12.2175 7.76739 12.532 8.39216 12.6321 9.067Z" stroke="white" stroke-width="2" stroke-linecap="round" stroke-linejoin="round"/>
</svg>
